<svg width="14" height="10" viewBox="0 0 14 10" fill="none" xmlns="http://www.w3.org/2000/svg">
<path d="M6.95801 3.06152C8.76537 3.14785 10.2031 4.55433 10.2031 6.27637L10.1982 6.44238C10.1064 8.14274 8.61211 9.49486 6.78223 9.49512L6.60645 9.49121C4.79882 9.40514 3.36133 7.99858 3.36133 6.27637C3.36134 4.4987 4.89294 3.05762 6.78223 3.05762L6.95801 3.06152ZM6.78223 3.97754C5.34728 3.97754 4.28126 5.05856 4.28125 6.27637C4.28125 7.49418 5.34728 8.5752 6.78223 8.5752C8.21692 8.57494 9.2832 7.49403 9.2832 6.27637C9.28319 5.05871 8.21691 3.9778 6.78223 3.97754ZM6.78125 0.758789C8.73568 0.758989 10.2783 1.58733 11.4004 2.60254C12.5164 3.61232 13.2356 4.82282 13.5615 5.64844L13.1338 5.81738L12.7061 5.98535C12.4269 5.27835 11.7844 4.19005 10.7832 3.28418C9.78791 2.38371 8.45646 1.67891 6.78125 1.67871C5.10579 1.67871 3.77374 2.38364 2.77832 3.28418C1.77709 4.19003 1.13467 5.27832 0.855469 5.98535L0.427734 5.81738L0 5.64844C0.325942 4.82279 1.04516 3.6123 2.16113 2.60254C3.28337 1.58726 4.82656 0.758789 6.78125 0.758789Z" fill="#815E4E"/>
</svg>
