<svg width="12" height="11" viewBox="0 0 12 11" fill="none" xmlns="http://www.w3.org/2000/svg">
<path fill-rule="evenodd" clip-rule="evenodd" d="M0.697177 1.05755C1.19523 0.420687 1.95958 0 3 0C3.81992 0 4.46927 0.222966 5.01551 0.692111C5.40034 1.02263 5.70896 1.21983 6 1.74806C7.04698 0.0852713 7.86832 0 9 0C10.2714 0 12 1.0542 12 3.22075C12 4.16788 11.4611 5.16643 10.8937 5.97851C10.3152 6.80661 9.64381 7.52745 9.26889 7.92995L9.25634 7.94343L6.00253 11L5.75595 10.7731C4.89003 9.97626 3.04814 8.27031 2.73483 7.93395C0.877243 5.93967 0 4.73203 0 3.22075C0 2.48501 0.208019 1.68304 0.697177 1.05755ZM1.27157 1.57529C0.916981 2.02871 0.75 2.63581 0.75 3.22075C0.75 4.35081 1.37276 5.33294 3.26516 7.36459C3.52726 7.64597 5.0609 9.07071 5.99762 9.93471L8.74366 7.35512C9.12059 6.95043 9.75342 6.26885 10.2937 5.4954C10.8514 4.69711 11.25 3.88398 11.25 3.22075C11.25 1.61884 9.97857 0.805186 9 0.805186C8.05852 0.805186 7.20805 0.895349 6.32617 2.75577H6H5.65535C5.28798 1.96695 4.95165 1.66841 4.54699 1.32086C4.15573 0.984813 3.68008 0.805186 3 0.805186C2.16542 0.805186 1.61727 1.13324 1.27157 1.57529Z" fill="#815E4E"/>
</svg>
