<svg width="14" height="13" viewBox="0 0 14 13" fill="none" xmlns="http://www.w3.org/2000/svg">
<path d="M10.5 0.4375C11.9833 0.437503 14 1.59909 14 3.98633C14 5.02997 13.3709 6.13056 12.709 7.02539C12.0341 7.93773 11.2508 8.73232 10.8135 9.17578L10.7988 9.19043L7.00293 12.5586L6.71484 12.3086C5.70456 11.4305 3.55595 9.55031 3.19043 9.17969C1.02336 6.98232 0 5.65155 0 3.98633C1.63927e-05 3.17565 0.242812 2.29174 0.813477 1.60254C1.39454 0.900904 2.2863 0.4375 3.5 0.4375C4.45657 0.4375 5.21429 0.68325 5.85156 1.2002C6.3004 1.56427 6.66054 1.78149 7 2.36328C8.22139 0.531331 9.17978 0.4375 10.5 0.4375ZM10.5 1.3252C9.40162 1.3252 8.40873 1.42373 7.37988 3.47363C7.30249 3.63326 7.15203 3.72655 7 3.72656C6.80991 3.72656 6.6525 3.63333 6.59863 3.47363H6.59766C6.16913 2.60477 5.77672 2.27548 5.30469 1.89258C4.84826 1.52243 4.29328 1.3252 3.5 1.3252C2.52646 1.3252 1.88672 1.68587 1.4834 2.17285C1.06973 2.67245 0.875017 3.34182 0.875 3.98633C0.875 5.23153 1.60176 6.31407 3.80957 8.55273C4.11602 8.86334 5.9045 10.433 6.99707 11.3848L10.2012 8.54199C10.6409 8.09606 11.3795 7.34532 12.0098 6.49316C12.6604 5.61354 13.125 4.71714 13.125 3.98633C13.125 2.22126 11.6416 1.3252 10.5 1.3252Z" fill="#815E4E"/>
</svg>
