<svg width="23" height="20" viewBox="0 0 23 20" fill="none" xmlns="http://www.w3.org/2000/svg">
<path fill-rule="evenodd" clip-rule="evenodd" d="M1.33626 1.92281C2.29085 0.764885 3.75587 0 5.75 0C7.3215 0 8.56611 0.405393 9.61306 1.25838C10.3507 1.85933 10.9422 2.21787 11.5 3.17829C13.5067 0.155039 15.081 0 17.25 0C19.6869 0 23 1.91672 23 5.8559C23 7.57797 21.967 9.3935 20.8797 10.87C19.7709 12.3757 18.484 13.6863 17.7654 14.4181L17.7413 14.4426L11.5048 20L11.0322 19.5874C9.37255 18.1387 5.84228 15.0369 5.24177 14.4254C1.68138 10.7994 0 8.60369 0 5.8559C0 4.5182 0.398703 3.06007 1.33626 1.92281ZM2.43718 2.86416C1.75755 3.68856 1.4375 4.79238 1.4375 5.8559C1.4375 7.91056 2.63112 9.69625 6.25823 13.3902C6.76058 13.9018 9.70005 16.4922 11.4954 18.0631L16.7587 13.3729C17.4811 12.6372 18.6941 11.3979 19.7297 9.99163C20.7986 8.5402 21.5625 7.06178 21.5625 5.8559C21.5625 2.94335 19.1256 1.46398 17.25 1.46398C15.4455 1.46398 13.8154 1.62791 12.1252 5.01049H11.5H10.8394C10.1353 3.57627 9.49067 3.03347 8.71506 2.40156C7.96514 1.79057 7.05349 1.46398 5.75 1.46398C4.15038 1.46398 3.09977 2.06044 2.43718 2.86416Z" fill="#C30000" fill-opacity="0.8"/>
</svg>
