<svg width="23" height="20" viewBox="0 0 23 20" fill="none" xmlns="http://www.w3.org/2000/svg">
<path d="M17.25 0C19.6868 3.39866e-07 22.9998 1.91658 23 5.85547C23 7.57753 21.9672 9.39361 20.8799 10.8701C19.7712 12.3756 18.4842 13.6861 17.7656 14.418L17.7412 14.4424L11.5049 20L11.0322 19.5879C9.37292 18.1394 5.84391 15.0384 5.24219 14.4258C1.6818 10.7998 0 8.60326 0 5.85547C8.59808e-05 4.51795 0.398591 3.05996 1.33594 1.92285C2.29053 0.764923 3.75587 0 5.75 0C7.3215 3.71592e-08 8.56633 0.4058 9.61328 1.25879C10.3507 1.85957 10.9423 2.21843 11.5 3.17871C13.5067 0.155455 15.081 0 17.25 0Z" fill="#CF3333" fill-opacity="0.8"/>
</svg>
