<svg width="13" height="11" viewBox="0 0 13 11" fill="none" xmlns="http://www.w3.org/2000/svg">
<path fill-rule="evenodd" clip-rule="evenodd" d="M0.755275 1.05755C1.29483 0.420687 2.12288 0 3.25 0C4.13824 0 4.84171 0.222966 5.43347 0.692111C5.85037 1.02263 6.18471 1.21983 6.5 1.74806C7.63423 0.0852714 8.52402 0 9.75 0C11.1274 0 13 1.0542 13 3.22075C13 4.16788 12.4162 5.16643 11.8016 5.97851C11.1748 6.80661 10.4475 7.52745 10.0413 7.92995L10.0277 7.94343L6.50274 11L6.23562 10.7731C5.29753 9.97626 3.30216 8.27031 2.96274 7.93395C0.950347 5.93967 0 4.73203 0 3.22075C0 2.48501 0.225354 1.68304 0.755275 1.05755ZM1.37754 1.57529C0.993396 2.02871 0.8125 2.63581 0.8125 3.22075C0.8125 4.35081 1.48715 5.33294 3.53726 7.36459C3.82119 7.64597 5.48264 9.07071 6.49742 9.93471L9.4723 7.35512C9.88064 6.95043 10.5662 6.26885 11.1516 5.4954C11.7557 4.69711 12.1875 3.88398 12.1875 3.22075C12.1875 1.61884 10.8101 0.805187 9.75 0.805187C8.73007 0.805187 7.80872 0.895349 6.85335 2.75577H6.5H6.12663C5.72864 1.96695 5.36429 1.66841 4.9259 1.32086C4.50204 0.984813 3.98676 0.805187 3.25 0.805187C2.34587 0.805187 1.75204 1.13324 1.37754 1.57529Z" fill="#5D5D5D"/>
</svg>
