<svg width="12" height="15" viewBox="0 0 12 15" fill="none" xmlns="http://www.w3.org/2000/svg">
<path fill-rule="evenodd" clip-rule="evenodd" d="M1.45165 5.32254C1.45166 3.55137 1.90179 2.21286 2.7029 1.3116C3.50947 0.404219 4.61875 0 5.8065 0C6.94619 0 8.06895 0.256098 8.89699 1.11598C9.71957 1.9702 10.1613 3.32763 10.1614 5.32254C10.963 5.32256 11.6129 5.97247 11.6129 6.77416V13.5484C11.6129 14.3501 10.963 15 10.1613 15H1.45162C0.649911 15 0 14.3501 0 13.5484V6.77416C0 5.97245 0.64994 5.32254 1.45165 5.32254ZM2.41939 5.32254C2.4194 3.70667 2.82949 2.62585 3.42621 1.95454C4.0175 1.28934 4.84371 0.967746 5.8065 0.967746C6.81736 0.967746 7.63009 1.19552 8.1999 1.78725C8.77516 2.38464 9.1936 3.44654 9.19361 5.32254H2.41939Z" fill="#D8CBB4"/>
</svg>
