<svg width="16" height="10" viewBox="0 0 16 10" fill="none" xmlns="http://www.w3.org/2000/svg">
<path id="Union" d="M8.33887 2.5C10.4192 2.5 12.1064 4.067 12.1064 6L12.1006 6.17969C11.9999 8.02917 10.3544 9.5 8.33887 9.5C6.25861 9.49988 4.57227 7.93292 4.57227 6C4.57227 4.06708 6.25861 2.50012 8.33887 2.5ZM8.33887 3.5C6.74044 3.50012 5.57227 4.68728 5.57227 6C5.57227 7.31272 6.74044 8.49988 8.33887 8.5C9.93742 8.5 11.1064 7.31279 11.1064 6C11.1064 4.68721 9.93742 3.5 8.33887 3.5ZM8.33789 0C10.4864 0 12.1836 0.898282 13.4189 2.00195C14.6474 3.09956 15.4387 4.41606 15.7979 5.31445L14.8701 5.68555C14.563 4.91732 13.8552 3.73371 12.752 2.74805C11.6554 1.76841 10.1868 1 8.33789 1C6.48919 1.00013 5.02123 1.76851 3.9248 2.74805C2.82156 3.73371 2.11374 4.91732 1.80664 5.68555L0.878906 5.31445C1.23806 4.41605 2.02933 3.09955 3.25781 2.00195C4.49306 0.898361 6.18961 0.000128157 8.33789 0Z" fill="#5D5D5D"/>
</svg>
