<svg width="12" height="15" viewBox="0 0 12 15" fill="none" xmlns="http://www.w3.org/2000/svg">
<path d="M1.31641 0.5625C1.55803 0.5625 1.75391 0.758375 1.75391 1V1.67773C2.84044 1.24162 4.66622 1.04291 6.75 2.21484L6.75879 2.2207L6.76758 2.22559C7.23781 2.51946 8.03971 2.59148 8.95703 2.50684C9.84864 2.42454 10.7473 2.20475 11.3271 2.01953C11.6587 1.91361 12 2.16064 12 2.51074V9.12305C12 9.30512 11.9019 9.48538 11.7236 9.57812C10.794 10.0618 8.5023 10.752 6.35254 9.75977L6.33984 9.75391C5.57062 9.3693 4.86719 9.02063 4.11133 8.88281C3.40869 8.75471 2.64831 8.81009 1.75391 9.24512V15H0.878906V1C0.878906 0.758375 1.07478 0.5625 1.31641 0.5625ZM6.3125 2.97266C4.20171 1.78936 2.47842 2.23702 1.75391 2.64355V8.28711C2.66494 7.92397 3.49257 7.88097 4.26855 8.02246C5.16253 8.18551 5.97263 8.59224 6.71777 8.96484H6.71875C8.39497 9.73848 10.2279 9.29534 11.125 8.89453V2.98926C10.5355 3.14971 9.78843 3.30861 9.03711 3.37793C8.09772 3.4646 7.04424 3.42525 6.3125 2.97266Z" fill="#5D5D5D"/>
</svg>
