<svg width="16" height="16" viewBox="0 0 16 16" fill="none" xmlns="http://www.w3.org/2000/svg">
<path d="M14.6748 16H1.5L2.08105 14.5508H14.0938L14.6748 16ZM3.24414 13.5811H2.08105V6.40234H3.24414V13.5811ZM6.73145 13.5811H5.56836V6.40234H6.73145V13.5811ZM10.4121 13.5811H9.25V6.40234H10.4121V13.5811ZM14.0938 13.5811H12.9316V6.40234H14.0938V13.5811ZM8.66895 13.3867H7.11914V12.8047H8.66895V13.3867ZM12.5439 13.3867H10.7998V12.8047H12.5439V13.3867ZM5.18164 11.2529V12.6113L3.63184 9.11914V7.56641L5.18164 11.2529ZM8.66895 10.0889H7.11914V9.50684H8.66895V10.0889ZM8.66895 6.98438H7.11914V6.40234H8.66895V6.98438ZM12.5439 6.98438H10.7998V6.40234H12.5439V6.98438ZM14.6748 4.46191V5.43262H1.5V4.46191L8.08789 0L14.6748 4.46191Z" fill="#5C4033"/>
</svg>
