<svg width="24" height="29" viewBox="0 0 24 29" fill="none" xmlns="http://www.w3.org/2000/svg">
<path fill-rule="evenodd" clip-rule="evenodd" d="M0 7.94853L11.75 0L23.5 7.94853V9.67647H0V7.94853ZM2.76471 11.4044H1.03676V24.1912H3.11029V11.4044H2.76471ZM7.25735 11.4044V24.1912H9.33088V11.4044H7.25735ZM13.8235 24.1912V11.4044H15.8971V24.1912H13.8235ZM20.3897 11.4044V24.1912H22.4632V11.4044H20.3897ZM1.03676 25.9191L0 28.5H23.5L22.4632 25.9191H1.03676ZM16.5883 12.4412V11.4044H19.6986V12.4412H16.5883ZM16.5883 23.8456V22.8088H19.6986V23.8456H16.5883ZM10.0221 11.4044H12.7868V12.4412H10.0221V11.4044ZM3.80151 13.4779L6.56622 20.0441V22.4632L3.80151 16.2427V13.4779ZM10.0221 23.8456V22.8088H12.7868V23.8456H10.0221ZM10.0221 17.9706H12.7868V16.9338H10.0221V17.9706Z" fill="#5C4033"/>
</svg>
